<?xml version="1.0" standalone="no"?>
<!DOCTYPE svg PUBLIC "-//W3C//DTD SVG 20010904//EN"
 "http://www.w3.org/TR/2001/REC-SVG-20010904/DTD/svg10.dtd">
<svg version="1.0" xmlns="http://www.w3.org/2000/svg"
 width="512.000000pt" height="512.000000pt" viewBox="0 0 512.000000 512.000000"
 preserveAspectRatio="xMidYMid meet">
<metadata>
Created by potrace 1.14, written by Peter Selinger 2001-2017
</metadata>
<g transform="translate(0.000000,512.000000) scale(0.100000,-0.100000)"
fill="#000000" stroke="none">
<path d="M2345 5070 c-4 -6 15 -10 50 -10 35 0 54 4 50 10 -3 6 -26 10 -50 10
-24 0 -47 -4 -50 -10z"/>
<path d="M2665 5070 c-4 -6 31 -10 101 -10 59 0 105 2 103 4 -11 9 -198 15
-204 6z"/>
<path d="M2258 5063 c12 -2 32 -2 45 0 12 2 2 4 -23 4 -25 0 -35 -2 -22 -4z"/>
<path d="M2108 5033 c7 -3 16 -2 19 1 4 3 -2 6 -13 5 -11 0 -14 -3 -6 -6z"/>
<path d="M2990 5030 c0 -5 7 -10 15 -10 8 0 15 5 15 10 0 6 -7 10 -15 10 -8 0
-15 -4 -15 -10z"/>
<path d="M3278 4963 c6 -2 18 -2 25 0 6 3 1 5 -13 5 -14 0 -19 -2 -12 -5z"/>
<path d="M2397 4796 c-15 -12 -15 -15 -2 -26 19 -16 19 -67 0 -103 -13 -26
-13 -31 0 -50 14 -20 15 -19 15 26 0 43 2 47 25 47 16 0 25 -6 25 -15 0 -8 7
-15 15 -15 10 0 15 -11 15 -35 0 -28 4 -35 20 -35 16 0 20 7 20 35 0 28 -4 35
-19 35 -13 0 -21 9 -26 30 -4 16 -11 32 -16 35 -5 4 -9 19 -9 34 0 46 -29 63
-63 37z"/>
<path d="M2560 4750 c0 -47 3 -60 15 -60 11 0 15 -12 15 -44 0 -42 13 -66 28
-51 7 7 10 180 3 203 -2 6 -16 12 -32 12 -29 0 -29 0 -29 -60z"/>
<path d="M2845 4792 c-28 -6 -65 -48 -72 -83 -3 -15 -2 -49 1 -74 6 -36 11
-45 27 -45 10 0 19 -7 19 -15 0 -11 12 -15 45 -15 33 0 45 4 45 15 0 8 7 15
15 15 8 0 15 7 15 15 0 8 -6 15 -14 15 -7 0 -19 -7 -26 -15 -7 -8 -23 -15 -36
-15 -15 0 -24 6 -24 15 0 8 -7 15 -15 15 -12 0 -15 13 -15 60 0 45 4 60 14 60
8 0 16 7 20 15 7 20 40 19 60 -1 9 -8 23 -14 32 -12 14 3 14 6 -3 24 -19 22
-55 32 -88 26z"/>
<path d="M2196 4738 c-9 -12 -16 -28 -16 -35 0 -9 -15 -13 -45 -13 -38 0 -45
3 -45 20 0 22 -15 27 -26 9 -3 -6 -3 -44 1 -85 5 -54 11 -74 21 -74 10 0 14
13 14 45 0 42 1 44 34 50 52 10 70 3 76 -29 9 -53 27 -41 25 16 -2 29 -3 68
-4 86 -1 37 -14 41 -35 10z"/>
<path d="M1888 4723 c-25 -3 -38 -9 -38 -19 0 -8 -9 -14 -21 -14 -17 0 -20 -4
-15 -22 3 -13 6 -31 6 -40 0 -10 7 -18 15 -18 11 0 15 -12 15 -49 0 -40 3 -50
20 -54 18 -5 20 0 22 39 0 24 1 50 2 57 1 6 -9 16 -21 22 -16 7 -23 18 -23 37
0 27 2 28 50 28 l50 0 0 -34 c0 -26 -5 -36 -20 -41 -11 -4 -18 -11 -15 -16 9
-14 35 -11 35 5 0 8 11 17 25 20 20 5 25 13 25 36 0 17 -4 30 -10 30 -5 0 -10
6 -10 14 0 12 -35 29 -50 24 -3 -1 -22 -3 -42 -5z"/>
<path d="M3206 4692 c-4 -13 -5 -26 -2 -29 10 -11 18 4 14 29 l-4 23 -8 -23z"/>
<path d="M3020 4640 c0 -38 -4 -50 -15 -50 -8 0 -15 -7 -15 -15 0 -8 7 -15 15
-15 8 0 15 7 15 15 0 8 7 15 15 15 8 0 15 7 15 15 0 8 14 17 35 21 39 7 46 19
15 27 -11 3 -20 12 -20 21 0 11 -9 16 -30 16 -29 0 -30 -1 -30 -50z"/>
<path d="M3270 4640 c0 -38 -4 -50 -15 -50 -12 0 -15 -13 -15 -55 0 -42 3 -55
15 -55 8 0 15 -9 15 -20 0 -19 5 -21 62 -18 58 3 62 5 77 35 9 18 22 33 29 33
19 0 17 110 -3 110 -10 0 -15 -10 -15 -29 0 -17 -4 -33 -10 -36 -5 -3 -17 -21
-25 -39 -18 -37 -35 -45 -83 -38 -31 4 -32 6 -32 53 0 35 4 49 14 49 16 0 28
52 20 86 -3 13 -12 24 -20 24 -10 0 -14 -14 -14 -50z"/>
<path d="M2310 4625 c0 -24 5 -35 15 -35 10 0 15 11 15 35 0 24 -5 35 -15 35
-10 0 -15 -11 -15 -35z"/>
<path d="M3170 4646 c0 -9 -7 -19 -15 -22 -17 -7 -21 -34 -5 -34 6 0 10 -7 10
-15 0 -8 -4 -15 -10 -15 -5 0 -10 -11 -10 -25 0 -32 9 -32 38 2 18 21 22 37
20 72 -2 24 -9 46 -15 49 -7 2 -13 -4 -13 -12z"/>
<path d="M1640 4600 c0 -29 13 -40 25 -20 14 22 33 8 46 -34 10 -34 19 -46 44
-55 43 -15 65 -14 65 4 0 8 -9 15 -20 15 -11 0 -20 6 -20 14 0 14 -44 66 -56
66 -4 0 -12 6 -18 14 -6 7 -23 16 -38 20 -26 6 -28 4 -28 -24z"/>
<path d="M3520 4562 c0 -15 -9 -35 -20 -45 -11 -9 -20 -23 -20 -31 0 -8 -7
-16 -15 -20 -20 -7 -21 -86 -1 -86 8 0 17 13 21 29 4 18 14 31 28 35 34 9 37
8 37 -14 0 -17 7 -20 50 -20 35 0 50 4 50 13 0 8 11 20 25 27 32 17 35 60 5
60 -11 0 -23 6 -26 14 -3 8 -16 17 -29 20 -14 4 -29 15 -35 26 -7 13 -21 20
-40 20 -26 0 -30 -4 -30 -28z m70 -22 c0 -6 11 -16 25 -22 20 -9 23 -16 18
-37 -8 -34 -24 -43 -44 -25 -8 7 -21 14 -27 14 -16 0 -15 67 1 73 20 9 27 8
27 -3z"/>
<path d="M1450 4526 c0 -8 -13 -17 -30 -21 -16 -4 -30 -11 -30 -16 0 -5 -7 -9
-15 -9 -8 0 -15 -9 -15 -20 0 -11 7 -20 15 -20 10 0 15 -10 15 -30 0 -20 5
-30 15 -30 10 0 15 -11 15 -35 0 -23 5 -35 14 -35 7 0 19 -7 26 -15 7 -8 16
-12 21 -9 16 9 10 43 -10 54 -17 8 -18 14 -8 40 9 25 17 30 44 30 22 0 33 -5
33 -14 0 -8 14 -17 30 -21 17 -4 30 -11 30 -16 0 -5 7 -9 15 -9 10 0 15 10 15
30 0 28 -2 30 -40 30 -28 0 -40 4 -40 14 0 22 -16 28 -55 20 -20 -3 -35 -12
-35 -20 0 -8 -9 -14 -20 -14 -16 0 -20 7 -20 33 0 54 60 88 90 52 14 -17 40
-20 40 -5 0 5 -8 19 -17 30 -21 24 -83 28 -83 6z"/>
<path d="M1640 4475 c0 -51 3 -65 15 -65 11 0 15 11 15 40 0 25 5 40 13 40 6
0 4 5 -5 11 -10 5 -18 17 -18 24 0 8 -4 15 -10 15 -6 0 -10 -28 -10 -65z"/>
<path d="M930 4500 c0 -5 5 -10 10 -10 6 0 10 5 10 10 0 6 -4 10 -10 10 -5 0
-10 -4 -10 -10z"/>
<path d="M1828 4463 c7 -3 16 -2 19 1 4 3 -2 6 -13 5 -11 0 -14 -3 -6 -6z"/>
<path d="M4200 4460 c0 -5 5 -10 10 -10 6 0 10 5 10 10 0 6 -4 10 -10 10 -5 0
-10 -4 -10 -10z"/>
<path d="M860 4425 c0 -8 5 -15 10 -15 6 0 10 7 10 15 0 8 -4 15 -10 15 -5 0
-10 -7 -10 -15z"/>
<path d="M1290 4427 c0 -12 -9 -17 -29 -17 -20 0 -30 -6 -34 -19 -2 -11 -15
-21 -28 -23 -29 -4 -40 -54 -15 -64 9 -3 23 -21 32 -40 9 -19 22 -34 29 -34 7
0 16 -15 21 -32 8 -27 15 -34 41 -36 24 -2 34 2 43 17 6 12 17 21 25 21 8 0
15 7 15 15 0 8 7 15 15 15 8 0 15 7 15 15 0 8 -7 15 -15 15 -8 0 -15 -7 -15
-15 0 -11 -11 -15 -35 -15 -22 0 -38 -6 -41 -15 -4 -8 -15 -15 -25 -15 -32 0
-24 49 13 82 17 15 35 28 40 28 4 0 8 7 8 15 0 17 -4 18 -37 9 -13 -4 -23 -13
-23 -20 0 -15 -27 -18 -54 -8 -17 7 -22 34 -6 34 6 0 10 6 10 14 0 8 11 17 24
20 22 5 45 51 31 64 -3 3 -5 -2 -5 -11z"/>
<path d="M2360 4425 c0 -13 28 -15 190 -15 162 0 190 2 190 15 0 13 -28 15
-190 15 -162 0 -190 -2 -190 -15z"/>
<path d="M3760 4425 c0 -10 -10 -15 -30 -15 -28 0 -30 -3 -30 -35 0 -24 -5
-35 -15 -35 -11 0 -15 -11 -15 -40 0 -29 4 -40 15 -40 8 0 15 -7 15 -15 0 -8
7 -15 15 -15 8 0 15 -7 15 -15 0 -11 12 -15 51 -15 66 0 62 24 -4 28 -33 2
-47 7 -47 18 0 7 -7 14 -15 14 -10 0 -15 11 -15 35 0 24 5 35 15 35 8 0 15 8
15 19 0 10 9 21 20 24 11 3 20 12 20 21 0 9 7 16 15 16 8 0 15 -7 15 -15 0 -9
9 -15 25 -15 18 0 25 -5 25 -20 0 -11 7 -20 15 -20 8 0 15 -4 15 -10 0 -5 5
-10 10 -10 15 0 12 36 -5 50 -8 7 -15 19 -15 26 0 8 -9 14 -20 14 -11 0 -20 7
-20 15 0 10 -11 15 -35 15 -24 0 -35 -5 -35 -15z"/>
<path d="M4230 4425 c0 -8 7 -15 15 -15 8 0 15 7 15 15 0 8 -7 15 -15 15 -8 0
-15 -7 -15 -15z"/>
<path d="M810 4395 c0 -8 7 -15 15 -15 8 0 15 7 15 15 0 8 -7 15 -15 15 -8 0
-15 -7 -15 -15z"/>
<path d="M2130 4395 c0 -12 17 -15 90 -15 73 0 90 3 90 15 0 12 -17 15 -90 15
-73 0 -90 -3 -90 -15z"/>
<path d="M2810 4395 c0 -12 15 -15 75 -15 60 0 75 3 75 15 0 12 -15 15 -75 15
-60 0 -75 -3 -75 -15z"/>
<path d="M4270 4395 c0 -8 5 -15 10 -15 6 0 10 7 10 15 0 8 -4 15 -10 15 -5 0
-10 -7 -10 -15z"/>
<path d="M2008 4353 c7 -3 16 -2 19 1 4 3 -2 6 -13 5 -11 0 -14 -3 -6 -6z"/>
<path d="M3090 4356 c0 -2 7 -6 15 -10 8 -3 15 -1 15 4 0 6 -7 10 -15 10 -8 0
-15 -2 -15 -4z"/>
<path d="M3584 4345 c3 -9 6 -21 6 -26 0 -5 7 -9 16 -9 23 0 14 44 -10 48 -14
3 -17 0 -12 -13z"/>
<path d="M1925 4333 c-16 -3 -34 -11 -38 -19 -4 -8 -20 -14 -35 -14 -15 0 -35
-9 -45 -20 -9 -11 -28 -20 -42 -20 -16 0 -25 -6 -25 -15 0 -10 11 -15 35 -15
23 0 35 5 35 14 0 8 15 17 34 20 18 4 41 15 51 26 11 12 31 20 52 20 23 0 33
5 33 15 0 8 -6 14 -12 14 -7 -1 -26 -4 -43 -6z"/>
<path d="M3128 4334 c-14 -13 3 -24 38 -24 20 0 37 -6 40 -14 3 -8 25 -19 50
-26 24 -7 44 -19 44 -26 0 -9 12 -14 35 -14 24 0 35 5 35 15 0 10 -10 15 -30
15 -17 0 -33 6 -36 14 -3 8 -20 18 -37 22 -18 3 -39 12 -47 19 -18 16 -82 29
-92 19z"/>
<path d="M710 4295 c0 -8 7 -15 15 -15 8 0 15 7 15 15 0 8 -7 15 -15 15 -8 0
-15 -7 -15 -15z"/>
<path d="M3950 4280 c0 -11 -6 -20 -14 -20 -8 0 -16 -7 -20 -15 -3 -8 -12 -15
-21 -15 -8 0 -15 -9 -15 -20 0 -11 -7 -20 -15 -20 -8 0 -15 -7 -15 -15 0 -8
-4 -15 -10 -15 -5 0 -10 -7 -10 -15 0 -9 9 -15 25 -15 16 0 25 6 25 15 0 8 7
15 15 15 8 0 15 7 15 15 0 8 9 15 20 15 11 0 20 -7 20 -15 0 -8 7 -15 15 -15
11 0 15 -11 15 -40 0 -29 -4 -40 -15 -40 -9 0 -15 -9 -15 -25 0 -14 4 -25 9
-25 13 0 91 76 91 89 0 6 7 11 15 11 8 0 15 7 15 15 0 8 5 15 10 15 14 0 12
27 -2 32 -19 7 -38 -2 -38 -18 0 -9 -11 -14 -35 -14 -24 0 -35 5 -35 15 0 8
-7 15 -15 15 -9 0 -15 9 -15 25 0 16 6 25 15 25 10 0 15 10 15 30 0 20 -5 30
-15 30 -8 0 -15 -9 -15 -20z"/>
<path d="M4380 4280 c0 -5 7 -10 15 -10 8 0 15 5 15 10 0 6 -7 10 -15 10 -8 0
-15 -4 -15 -10z"/>
<path d="M680 4250 c0 -5 7 -10 15 -10 8 0 15 5 15 10 0 6 -7 10 -15 10 -8 0
-15 -4 -15 -10z"/>
<path d="M1060 4245 c0 -8 -8 -15 -18 -15 -21 0 -52 -62 -34 -68 7 -2 12 -10
12 -18 0 -8 5 -14 10 -14 6 0 10 -7 10 -15 0 -8 4 -15 9 -15 5 0 14 7 21 15 7
8 25 15 41 15 19 0 29 5 29 15 0 8 6 15 14 15 8 0 16 -7 20 -15 3 -8 12 -15
21 -15 28 0 15 -26 -20 -40 -19 -8 -35 -17 -35 -21 0 -4 -9 -9 -21 -12 -31 -8
-17 -32 16 -30 16 1 31 6 34 11 3 5 14 11 24 15 9 3 17 16 17 27 0 11 7 20 15
20 10 0 15 10 15 30 0 20 -5 30 -15 30 -8 0 -15 7 -15 15 0 10 -11 15 -35 15
-24 0 -35 -5 -35 -15 0 -12 -13 -15 -60 -15 -53 0 -60 2 -60 20 0 15 7 20 25
20 16 0 25 6 25 15 0 10 11 15 35 15 24 0 35 5 35 15 0 11 -11 15 -40 15 -29
0 -40 -4 -40 -15z"/>
<path d="M4410 4245 c0 -8 7 -15 15 -15 8 0 15 7 15 15 0 8 -7 15 -15 15 -8 0
-15 -7 -15 -15z"/>
<path d="M1657 4210 c-9 -11 -26 -20 -37 -20 -11 0 -20 -7 -20 -15 0 -9 -9
-15 -21 -15 -12 0 -34 -13 -49 -30 l-28 -30 24 0 c15 0 24 6 24 15 0 9 9 15
25 15 16 0 25 6 25 15 0 10 10 15 31 15 22 0 32 5 36 20 3 13 14 20 29 20 15
0 24 6 24 15 0 22 -42 19 -63 -5z"/>
<path d="M3390 4216 c0 -8 14 -17 30 -21 17 -4 30 -13 30 -21 0 -8 9 -14 20
-14 11 0 20 -7 20 -15 0 -10 11 -15 35 -15 24 0 35 -5 35 -15 0 -10 10 -15 28
-15 l27 0 -32 21 c-18 12 -33 25 -33 30 0 5 -7 9 -15 9 -9 0 -18 6 -21 14 -3
8 -19 18 -35 21 -16 4 -29 13 -29 21 0 9 -11 14 -30 14 -19 0 -30 -5 -30 -14z"/>
<path d="M4450 4215 c0 -8 5 -15 10 -15 6 0 10 7 10 15 0 8 -4 15 -10 15 -5 0
-10 -7 -10 -15z"/>
<path d="M610 4180 c0 -5 5 -10 10 -10 6 0 10 5 10 10 0 6 -4 10 -10 10 -5 0
-10 -4 -10 -10z"/>
<path d="M1448 4082 c-20 -2 -28 -9 -28 -23 0 -10 -7 -19 -15 -19 -8 0 -15 -4
-15 -10 0 -11 6 -12 38 -4 12 4 22 13 22 20 0 8 9 14 20 14 11 0 20 4 20 9 0
14 -11 17 -42 13z"/>
<path d="M3630 4065 c7 -8 19 -15 26 -15 8 0 14 -7 14 -15 0 -9 6 -12 15 -9 8
4 15 10 15 15 0 5 -7 9 -15 9 -8 0 -15 7 -15 15 0 10 -10 15 -26 15 -22 0 -25
-2 -14 -15z"/>
<path d="M4195 4030 c-3 -11 -13 -20 -21 -20 -8 0 -14 -7 -14 -15 0 -8 -7 -15
-15 -15 -8 0 -15 -6 -15 -14 0 -7 -9 -16 -20 -19 -13 -3 -20 -13 -20 -29 0
-39 12 -68 26 -68 8 0 14 -6 14 -13 0 -8 11 -20 25 -27 22 -12 30 -11 65 6 22
10 40 22 40 27 0 4 7 7 15 7 8 0 15 5 15 10 0 6 11 15 25 20 28 11 37 60 10
60 -8 0 -15 -6 -15 -13 0 -12 -24 -28 -62 -43 -10 -3 -18 -15 -18 -25 0 -15
-7 -19 -34 -19 -57 0 -66 7 -66 56 0 41 2 45 30 51 17 3 30 12 30 19 0 8 9 14
20 14 13 0 20 7 20 20 0 11 8 24 17 27 15 6 15 7 -3 14 -31 12 -42 10 -49 -11z"/>
<path d="M3700 4000 c0 -16 7 -20 30 -20 20 0 30 -5 30 -15 0 -8 9 -15 20 -15
11 0 20 7 20 15 0 8 -9 15 -20 15 -11 0 -20 6 -20 14 0 7 -10 16 -22 20 -35 9
-38 8 -38 -14z"/>
<path d="M831 3994 c0 -11 3 -14 6 -6 3 7 2 16 -1 19 -3 4 -6 -2 -5 -13z"/>
<path d="M1350 3995 c0 -8 -7 -15 -15 -15 -8 0 -15 -7 -15 -15 0 -8 7 -15 15
-15 8 0 15 7 15 15 0 8 9 15 20 15 11 0 20 7 20 15 0 8 -9 15 -20 15 -11 0
-20 -7 -20 -15z"/>
<path d="M780 3945 c0 -19 4 -35 9 -35 19 0 71 -56 71 -77 0 -17 7 -23 35 -29
19 -3 42 -4 50 0 27 10 16 26 -20 26 l-35 0 0 75 c0 68 -2 75 -20 75 -16 0
-20 -6 -18 -32 2 -24 -2 -33 -14 -36 -15 -3 -18 4 -18 32 0 29 -4 36 -20 36
-16 0 -20 -7 -20 -35z"/>
<path d="M923 3934 c-3 -9 3 -23 16 -35 11 -11 21 -29 21 -39 0 -11 7 -20 15
-20 8 0 15 9 15 19 0 10 7 22 16 25 16 6 16 8 0 24 -9 10 -16 24 -16 30 0 18
-60 15 -67 -4z"/>
<path d="M1286 3943 c-11 -11 -6 -23 9 -23 8 0 15 4 15 9 0 13 -16 22 -24 14z"/>
<path d="M2417 3944 c-4 -4 -7 -157 -7 -341 l0 -333 -318 0 -318 0 -10 -29
c-8 -19 -8 -34 -1 -46 5 -10 7 -58 5 -111 -3 -52 -1 -94 3 -94 5 0 9 -7 9 -15
0 -14 35 -16 293 -15 160 0 302 1 315 0 l22 0 0 -872 c1 -710 3 -876 14 -890
11 -16 31 -18 140 -18 69 0 127 1 128 3 2 1 5 400 8 887 l5 885 315 5 315 5 3
153 3 152 -321 0 -320 0 -2 338 -3 337 -136 3 c-74 1 -138 -1 -142 -4z"/>
<path d="M3810 3940 c-13 -9 -13 -11 0 -20 15 -10 25 0 18 20 -2 6 -8 6 -18 0z"/>
<path d="M1237 3887 c-30 -26 -34 -37 -12 -37 8 0 15 7 15 15 0 8 7 15 15 15
8 0 15 7 15 15 0 20 -2 19 -33 -8z"/>
<path d="M3850 3896 c0 -9 5 -16 10 -16 6 0 10 4 10 9 0 6 -4 13 -10 16 -5 3
-10 -1 -10 -9z"/>
<path d="M3880 3860 c0 -5 5 -10 11 -10 5 0 7 5 4 10 -3 6 -8 10 -11 10 -2 0
-4 -4 -4 -10z"/>
<path d="M4355 3838 c-11 -6 -24 -17 -28 -25 -4 -7 -16 -13 -26 -13 -11 0 -21
-7 -25 -15 -3 -8 -15 -15 -26 -15 -13 0 -20 -7 -20 -20 0 -28 45 -27 60 1 18
33 54 21 60 -21 l6 -35 8 34 c5 20 16 35 27 38 15 4 19 14 19 44 0 42 -15 50
-55 27z"/>
<path d="M1177 3834 c-8 -8 1 -24 14 -24 5 0 9 7 9 15 0 15 -12 20 -23 9z"/>
<path d="M3916 3815 c4 -8 10 -15 14 -15 4 0 10 7 14 15 4 10 -1 15 -14 15
-13 0 -18 -5 -14 -15z"/>
<path d="M1140 3790 c0 -5 7 -10 15 -10 8 0 15 5 15 10 0 6 -7 10 -15 10 -8 0
-15 -4 -15 -10z"/>
<path d="M3950 3785 c0 -8 7 -15 15 -15 8 0 15 7 15 15 0 8 -7 15 -15 15 -8 0
-15 -7 -15 -15z"/>
<path d="M647 3763 c-4 -3 -7 -19 -7 -35 0 -21 5 -28 20 -28 11 0 20 -7 20
-15 0 -8 7 -15 15 -15 8 0 15 7 15 15 0 18 50 21 50 3 1 -12 70 -51 77 -44 2
2 -1 15 -6 30 -8 19 -18 26 -36 26 -16 0 -25 6 -25 15 0 9 -9 15 -22 15 -39 0
-68 12 -68 26 0 14 -22 19 -33 7z"/>
<path d="M1110 3750 c0 -11 7 -20 15 -20 8 0 15 9 15 20 0 11 -7 20 -15 20 -8
0 -15 -9 -15 -20z"/>
<path d="M3996 3733 c-12 -12 -6 -33 9 -33 8 0 15 -7 15 -15 0 -8 7 -15 15
-15 8 0 15 7 15 15 0 8 -7 15 -15 15 -8 0 -15 6 -15 14 0 17 -14 28 -24 19z"/>
<path d="M1080 3715 c0 -8 -9 -15 -20 -15 -16 0 -20 -7 -20 -36 0 -21 4 -33
10 -29 6 3 10 10 10 16 0 5 9 18 20 29 21 21 27 50 10 50 -5 0 -10 -7 -10 -15z"/>
<path d="M4440 3715 c0 -8 -7 -15 -15 -15 -8 0 -15 -7 -15 -16 0 -12 -10 -15
-47 -13 -43 3 -47 1 -56 -24 -9 -29 -4 -57 11 -57 5 0 22 11 38 25 16 14 35
25 42 25 6 0 12 5 12 10 0 6 6 10 13 10 15 0 57 45 57 60 0 6 -9 10 -20 10
-11 0 -20 -7 -20 -15z"/>
<path d="M4060 3650 c0 -11 5 -20 10 -20 6 0 10 9 10 20 0 11 -4 20 -10 20 -5
0 -10 -9 -10 -20z"/>
<path d="M710 3625 c0 -24 5 -35 15 -35 8 0 15 -7 15 -15 0 -20 30 -32 39 -16
13 20 0 60 -20 66 -10 4 -19 13 -19 21 0 8 -7 14 -15 14 -10 0 -15 -11 -15
-35z"/>
<path d="M560 3619 c-14 -6 -20 -13 -14 -17 6 -4 13 -15 17 -25 4 -9 18 -22
32 -27 14 -5 25 -14 25 -20 0 -5 14 -10 30 -10 19 0 30 -5 30 -14 0 -7 10 -16
23 -20 34 -9 37 -8 37 14 0 16 -7 20 -30 20 -17 0 -30 5 -30 12 0 10 -86 100
-93 97 -1 0 -13 -5 -27 -10z"/>
<path d="M4483 3610 c-10 -11 -30 -20 -45 -20 -18 0 -28 -5 -28 -15 0 -8 -14
-17 -35 -21 -20 -3 -35 -12 -35 -20 0 -9 12 -14 35 -14 24 0 35 5 35 15 0 8 9
15 20 15 11 0 29 9 40 20 11 11 31 22 45 26 14 3 25 12 25 20 0 21 -38 17 -57
-6z"/>
<path d="M1006 3612 c-2 -4 -1 -14 5 -22 7 -12 9 -10 9 8 0 23 -5 28 -14 14z"/>
<path d="M4100 3577 c0 -27 13 -36 26 -16 3 6 -1 18 -10 27 -15 15 -16 14 -16
-11z"/>
<path d="M960 3550 c0 -20 -5 -30 -15 -30 -8 0 -15 -9 -15 -20 0 -11 -6 -20
-14 -20 -8 0 -17 -7 -20 -16 -11 -28 -6 -54 9 -54 8 0 15 8 15 18 0 10 9 25
20 35 11 9 20 26 20 37 0 11 6 20 14 20 8 0 16 13 18 30 4 24 1 30 -14 30 -13
0 -18 -8 -18 -30z"/>
<path d="M4130 3520 c0 -20 5 -30 15 -30 8 0 15 -9 15 -20 0 -11 6 -20 14 -20
8 0 17 -13 21 -30 8 -35 20 -39 28 -8 7 26 1 38 -19 38 -9 0 -14 11 -14 30 0
20 -5 30 -15 30 -8 0 -15 9 -15 20 0 11 -7 20 -15 20 -10 0 -15 -10 -15 -30z"/>
<path d="M4540 3535 c0 -10 -10 -15 -30 -15 -19 0 -30 -5 -30 -14 0 -8 -15
-17 -35 -20 -21 -4 -35 -13 -35 -21 0 -8 -7 -15 -15 -15 -8 0 -15 -7 -15 -15
0 -8 7 -15 15 -15 8 0 15 7 15 15 0 11 12 15 50 15 48 0 50 -1 50 -29 0 -27
23 -50 34 -33 9 14 -7 62 -20 62 -19 0 -18 26 2 34 9 3 27 6 40 6 20 0 24 5
24 30 0 25 -4 30 -25 30 -16 0 -25 -6 -25 -15z"/>
<path d="M505 3511 c-11 -18 41 -61 74 -61 19 0 34 -6 37 -15 4 -8 17 -15 29
-15 13 0 27 -4 30 -10 12 -20 35 -10 35 15 0 22 -4 25 -35 25 -22 0 -38 6 -41
15 -4 8 -17 15 -30 15 -13 0 -32 9 -41 20 -18 21 -48 27 -58 11z"/>
<path d="M4601 3470 c0 -8 6 -23 13 -32 16 -22 48 -24 40 -3 -4 8 -14 15 -24
15 -10 0 -21 8 -23 18 -3 12 -5 13 -6 2z"/>
<path d="M460 3385 c0 -8 -7 -15 -15 -15 -10 0 -15 -10 -15 -30 0 -18 -6 -33
-15 -36 -8 -4 -15 -12 -15 -20 0 -8 7 -14 15 -14 8 0 15 -7 15 -15 0 -10 10
-15 30 -15 16 0 44 -9 62 -20 31 -19 97 -27 111 -14 3 3 3 12 0 20 -3 9 -21
14 -54 14 -37 0 -49 4 -49 15 0 11 -11 15 -36 15 -35 0 -35 1 -32 38 3 32 7
37 31 40 22 3 30 -1 34 -17 7 -28 30 -33 47 -10 11 17 16 18 27 6 21 -21 59
-28 59 -11 0 8 -4 14 -10 14 -5 0 -10 9 -10 20 0 18 -7 20 -55 20 -42 0 -55 3
-55 15 0 10 -11 15 -35 15 -24 0 -35 -5 -35 -15z"/>
<path d="M860 3365 c0 -13 -6 -28 -14 -32 -7 -4 -19 -26 -26 -48 -7 -22 -16
-42 -21 -45 -4 -3 -10 -22 -14 -44 -6 -31 -5 -38 6 -34 8 2 15 21 17 41 2 22
8 37 16 37 7 0 18 18 25 40 7 23 18 40 26 40 10 0 15 11 15 35 0 24 -5 35 -15
35 -9 0 -15 -9 -15 -25z"/>
<path d="M4230 3335 c0 -23 5 -35 14 -35 7 0 19 -20 26 -45 7 -27 18 -45 27
-45 9 0 12 7 9 18 -3 9 -8 29 -12 45 -3 15 -12 27 -20 27 -9 0 -14 12 -14 35
0 24 -5 35 -15 35 -10 0 -15 -11 -15 -35z"/>
<path d="M4560 3319 c-19 -10 -45 -19 -56 -19 -14 0 -24 -8 -28 -22 -9 -35 -8
-38 14 -38 11 0 20 7 20 15 0 11 11 15 40 15 27 0 40 4 40 14 0 7 14 17 31 22
17 5 31 14 32 19 3 18 -57 14 -93 -6z"/>
<path d="M4604 3230 c-12 -5 -25 -13 -29 -19 -3 -6 -17 -11 -31 -11 -15 0 -27
-7 -30 -17 -3 -10 -10 -27 -15 -38 -7 -14 -6 -28 3 -45 18 -33 63 -80 77 -80
19 0 12 24 -14 49 -33 31 -33 76 1 107 19 19 36 24 75 24 37 0 49 -4 49 -15 0
-8 7 -15 15 -15 8 0 15 7 15 15 0 8 -7 15 -15 15 -8 0 -15 7 -15 15 0 8 -6 15
-12 15 -7 0 -22 2 -33 5 -11 2 -30 0 -41 -5z"/>
<path d="M4310 3160 c0 -22 5 -40 10 -40 6 0 10 18 10 40 0 22 -4 40 -10 40
-5 0 -10 -18 -10 -40z"/>
<path d="M398 3184 c-3 -3 -4 -14 -1 -25 4 -14 14 -19 42 -19 39 0 91 -19 91
-34 0 -5 8 -15 18 -22 16 -13 16 -15 0 -25 -10 -5 -18 -17 -18 -24 0 -12 -16
-15 -75 -15 -63 0 -75 3 -75 17 0 9 -2 14 -5 11 -4 -3 -3 -17 1 -32 6 -26 8
-26 93 -26 l86 0 19 39 c12 25 16 47 11 62 -9 26 -29 49 -43 49 -6 0 -12 5
-14 11 -2 6 -25 13 -51 16 -26 3 -47 10 -47 14 0 10 -23 12 -32 3z"/>
<path d="M760 3135 c0 -8 2 -15 4 -15 2 0 6 7 10 15 3 8 1 15 -4 15 -6 0 -10
-7 -10 -15z"/>
<path d="M4695 3080 c3 -5 10 -10 16 -10 5 0 9 5 9 10 0 6 -7 10 -16 10 -8 0
-12 -4 -9 -10z"/>
<path d="M80 3040 c0 -5 5 -10 10 -10 6 0 10 5 10 10 0 6 -4 10 -10 10 -5 0
-10 -4 -10 -10z"/>
<path d="M4351 2995 c1 -40 1 -40 11 -12 7 21 7 32 -1 40 -8 8 -11 0 -10 -28z"/>
<path d="M710 2945 c0 -60 3 -75 15 -75 12 0 15 15 15 75 0 60 -3 75 -15 75
-12 0 -15 -15 -15 -75z"/>
<path d="M5020 2990 c0 -16 5 -30 10 -30 6 0 10 14 10 30 0 17 -4 30 -10 30
-5 0 -10 -13 -10 -30z"/>
<path d="M4560 2975 c0 -8 7 -15 15 -15 9 0 12 6 9 15 -4 8 -10 15 -15 15 -5
0 -9 -7 -9 -15z"/>
<path d="M4380 2880 c0 -56 3 -70 15 -70 12 0 15 14 15 70 0 56 -3 70 -15 70
-12 0 -15 -14 -15 -70z"/>
<path d="M4613 2944 c-8 -4 -5 -12 9 -26 22 -22 45 -11 35 16 -6 16 -21 19
-44 10z"/>
<path d="M4716 2925 c-14 -13 -26 -29 -26 -35 0 -8 -10 -9 -29 -5 -25 5 -29 3
-35 -19 -3 -15 -13 -26 -21 -26 -9 0 -15 -9 -15 -21 0 -15 4 -19 16 -15 9 3
24 6 35 6 10 0 19 7 19 15 0 8 7 15 15 15 8 0 15 5 15 10 0 6 7 10 15 10 8 0
15 4 15 9 0 5 11 12 25 15 18 5 25 13 25 30 0 34 -24 39 -54 11z"/>
<path d="M48 2878 c-3 -35 -1 -72 3 -83 5 -12 8 11 8 63 1 45 -1 82 -3 82 -2
0 -6 -28 -8 -62z"/>
<path d="M343 2925 c-17 -19 -18 -64 -1 -47 23 23 88 4 88 -27 0 -17 22 -13
50 9 14 11 31 20 38 20 13 0 17 40 3 40 -5 0 -22 -7 -37 -15 -34 -17 -54 -19
-54 -5 0 6 -7 10 -15 10 -8 0 -15 7 -15 15 0 19 -41 19 -57 0z"/>
<path d="M300 2797 c1 -7 17 -22 36 -34 29 -19 50 -23 111 -23 55 0 74 3 71
12 -3 7 -23 16 -46 21 -25 5 -42 14 -42 22 0 10 -17 13 -65 14 -45 0 -65 -4
-65 -12z"/>
<path d="M680 2560 c0 -216 2 -250 15 -250 13 0 15 34 15 250 0 216 -2 250
-15 250 -13 0 -15 -34 -15 -250z"/>
<path d="M4775 2773 c-7 -30 -10 -32 -64 -38 -82 -9 -82 -9 -81 -20 0 -6 25
-9 59 -7 53 3 60 1 79 -23 l21 -27 6 24 c3 13 2 46 -3 73 -9 49 -10 50 -17 18z"/>
<path d="M5061 2700 l2 -75 9 63 c7 45 7 67 -1 75 -8 8 -11 -9 -10 -63z"/>
<path d="M4410 2690 c0 -20 5 -30 15 -30 10 0 15 10 15 30 0 20 -5 30 -15 30
-10 0 -15 -10 -15 -30z"/>
<path d="M295 2660 c-4 -6 -8 -37 -9 -70 -2 -55 -1 -60 18 -60 216 -4 226 -3
226 15 0 12 -13 15 -60 15 -47 0 -60 3 -60 15 0 8 5 15 10 15 6 0 10 16 10 35
0 28 -4 35 -20 35 -17 0 -18 -5 -13 -50 l6 -50 -48 0 -48 0 6 50 c6 47 -4 73
-18 50z"/>
<path d="M511 2644 c0 -11 3 -14 6 -6 3 7 2 16 -1 19 -3 4 -6 -2 -5 -13z"/>
<path d="M4590 2545 c0 -12 18 -15 105 -15 87 0 105 3 105 15 0 12 -18 15
-105 15 -87 0 -105 -3 -105 -15z"/>
<path d="M4410 2445 c0 -33 4 -45 15 -45 11 0 15 12 15 45 0 33 -4 45 -15 45
-11 0 -15 -12 -15 -45z"/>
<path d="M4630 2475 c0 -8 -9 -19 -20 -25 -23 -13 -27 -40 -5 -40 8 0 15 5 15
10 0 6 9 10 20 10 11 0 20 5 20 10 0 18 55 10 81 -13 35 -29 42 -54 27 -88
-12 -28 -16 -29 -79 -29 -58 0 -67 3 -72 20 -3 11 -10 20 -16 20 -17 0 -13
-30 4 -36 8 -4 15 -12 15 -19 0 -7 15 -16 34 -19 45 -9 116 3 116 19 0 7 6 15
13 18 18 7 14 130 -3 135 -7 3 -20 13 -28 23 -21 24 -122 28 -122 4z"/>
<path d="M5061 2402 c-1 -40 3 -61 9 -57 12 7 12 59 0 95 -6 19 -8 9 -9 -38z"/>
<path d="M340 2441 l-35 -7 42 -14 c33 -10 43 -19 48 -41 8 -37 -10 -69 -39
-69 -22 0 -44 -25 -28 -33 4 -2 49 -1 100 1 78 3 91 6 81 18 -6 8 -27 14 -45
14 l-34 0 0 60 0 60 37 0 c20 0 33 3 30 7 -10 9 -115 12 -157 4z"/>
<path d="M46 2312 c-3 -4 -1 -39 3 -78 l8 -69 2 78 c1 73 -2 87 -13 69z"/>
<path d="M4380 2240 c0 -56 3 -70 15 -70 12 0 15 14 15 70 0 56 -3 70 -15 70
-12 0 -15 -14 -15 -70z"/>
<path d="M710 2170 c0 -56 3 -70 15 -70 12 0 15 14 15 70 0 56 -3 70 -15 70
-12 0 -15 -14 -15 -70z"/>
<path d="M4573 2223 c9 -2 17 -9 17 -14 0 -5 7 -9 15 -9 8 0 15 7 15 15 0 10
-10 15 -32 14 -18 -1 -25 -3 -15 -6z"/>
<path d="M496 2194 c-4 -11 1 -18 14 -21 16 -4 20 -14 20 -44 0 -28 -4 -39
-15 -39 -8 0 -15 -7 -15 -15 0 -12 -13 -15 -60 -15 -53 0 -60 2 -60 20 0 11
-7 20 -15 20 -8 0 -15 7 -15 15 0 8 7 15 15 15 8 0 15 7 15 15 0 9 -9 15 -25
15 -21 0 -25 -5 -25 -30 0 -16 5 -30 10 -30 6 0 10 -7 10 -15 0 -8 4 -15 9
-15 5 0 11 -9 14 -20 5 -18 14 -20 77 -20 63 0 72 2 77 20 3 11 12 20 19 20
10 0 14 14 14 48 0 36 -6 52 -24 70 -28 26 -32 27 -40 6z"/>
<path d="M4678 2193 c-12 -3 -18 -14 -18 -34 0 -22 -5 -29 -20 -29 -11 0 -20
-6 -20 -14 0 -10 -14 -16 -42 -18 -30 -2 -43 -8 -43 -18 0 -10 13 -16 43 -18
37 -3 42 -1 42 17 0 14 6 21 20 21 11 0 20 7 20 15 0 11 12 15 45 15 39 0 45
3 51 24 3 14 3 30 -1 35 -6 11 -44 13 -77 4z"/>
<path d="M5027 2153 c-11 -10 -8 -53 3 -53 6 0 10 14 10 30 0 31 -2 35 -13 23z"/>
<path d="M4350 2115 c0 -15 4 -24 10 -20 6 3 10 12 10 20 0 8 -4 17 -10 20 -6
4 -10 -5 -10 -20z"/>
<path d="M80 2060 c0 -16 5 -30 10 -30 6 0 10 14 10 30 0 17 -4 30 -10 30 -5
0 -10 -13 -10 -30z"/>
<path d="M4678 2053 c-29 -7 -20 -23 12 -23 20 0 30 5 30 15 0 15 -9 17 -42 8z"/>
<path d="M760 1983 c0 -13 5 -23 10 -23 13 0 13 11 0 30 -8 12 -10 11 -10 -7z"/>
<path d="M4317 1993 c-4 -3 -7 -24 -7 -45 0 -25 -4 -38 -14 -38 -7 0 -19 -20
-26 -44 -7 -25 -18 -47 -26 -50 -19 -7 -18 -66 1 -66 10 0 15 10 15 30 0 17 6
33 14 36 8 3 18 20 21 37 4 18 13 41 19 52 24 37 26 111 3 88z"/>
<path d="M787 1953 c-7 -12 4 -73 13 -73 4 0 13 -20 20 -44 7 -25 18 -47 26
-50 8 -3 14 -19 14 -35 0 -23 4 -29 15 -25 22 9 19 61 -4 69 -12 4 -21 19 -25
45 -4 26 -12 40 -21 40 -10 0 -15 11 -15 34 0 33 -13 55 -23 39z"/>
<path d="M151 1774 c0 -11 3 -14 6 -6 3 7 2 16 -1 19 -3 4 -6 -2 -5 -13z"/>
<path d="M4200 1695 c0 -25 14 -34 24 -16 8 12 -3 41 -15 41 -5 0 -9 -11 -9
-25z"/>
<path d="M180 1691 c0 -6 5 -13 10 -16 6 -3 10 1 10 9 0 9 -4 16 -10 16 -5 0
-10 -4 -10 -9z"/>
<path d="M890 1670 c0 -23 4 -30 20 -30 13 0 20 -7 20 -20 0 -11 7 -20 15 -20
10 0 15 -10 15 -30 0 -20 5 -30 15 -30 10 0 15 10 15 30 0 20 -5 30 -15 30 -8
0 -15 9 -15 20 0 11 -6 20 -14 20 -8 0 -17 14 -21 30 -4 17 -13 30 -21 30 -9
0 -14 -11 -14 -30z"/>
<path d="M4160 1651 c0 -11 -7 -26 -15 -35 -8 -8 -15 -24 -15 -35 0 -12 -6
-21 -15 -21 -10 0 -15 -10 -15 -27 l0 -28 21 33 c12 17 25 32 30 32 5 0 9 7 9
15 0 8 6 15 14 15 13 0 29 48 19 62 -9 16 -33 7 -33 -11z"/>
<path d="M609 1538 c-16 -18 -29 -42 -29 -53 1 -23 32 -65 49 -65 6 0 11 -7
11 -15 0 -11 12 -15 48 -15 45 1 48 2 65 39 9 20 17 47 17 58 0 12 -8 35 -17
52 -16 28 -23 31 -66 31 -41 0 -52 -4 -78 -32z"/>
<path d="M4398 1563 c-9 -2 -20 -13 -23 -24 -4 -10 -11 -19 -16 -19 -13 0 -11
-41 4 -73 6 -15 20 -27 30 -27 9 0 17 -7 17 -15 0 -11 11 -15 40 -15 29 0 40
4 40 15 0 8 8 15 19 15 36 0 42 76 9 120 -18 25 -28 30 -62 29 -23 -1 -49 -3
-58 -6z"/>
<path d="M1000 1516 c0 -8 5 -18 10 -21 6 -3 10 3 10 14 0 12 -4 21 -10 21 -5
0 -10 -6 -10 -14z"/>
<path d="M4060 1475 c0 -9 -7 -18 -15 -21 -8 -4 -15 -12 -15 -20 0 -19 6 -18
30 6 21 21 27 50 10 50 -5 0 -10 -7 -10 -15z"/>
<path d="M1040 1450 c0 -20 5 -30 15 -30 8 0 15 -7 15 -15 0 -8 7 -15 15 -15
8 0 15 7 15 15 0 8 -6 15 -14 15 -8 0 -17 14 -21 30 -4 17 -11 30 -16 30 -5 0
-9 -13 -9 -30z"/>
<path d="M4000 1405 c0 -8 -4 -15 -10 -15 -5 0 -10 -7 -10 -15 0 -24 27 -18
34 8 8 31 7 37 -4 37 -5 0 -10 -7 -10 -15z"/>
<path d="M1110 1370 c0 -11 7 -20 15 -20 8 0 15 9 15 20 0 11 -7 20 -15 20 -8
0 -15 -9 -15 -20z"/>
<path d="M3950 1335 c0 -8 7 -15 15 -15 8 0 15 7 15 15 0 8 -7 15 -15 15 -8 0
-15 -7 -15 -15z"/>
<path d="M1140 1330 c0 -5 7 -10 15 -10 8 0 15 5 15 10 0 6 -7 10 -15 10 -8 0
-15 -4 -15 -10z"/>
<path d="M3915 1300 c-3 -5 3 -10 15 -10 12 0 18 5 15 10 -3 6 -10 10 -15 10
-5 0 -12 -4 -15 -10z"/>
<path d="M1175 1290 c3 -5 10 -10 16 -10 5 0 9 5 9 10 0 6 -7 10 -16 10 -8 0
-12 -4 -9 -10z"/>
<path d="M1210 1262 c0 -4 8 -14 18 -23 32 -27 42 -31 42 -15 0 9 -7 16 -15
16 -8 0 -15 7 -15 15 0 8 -7 15 -15 15 -8 0 -15 -3 -15 -8z"/>
<path d="M3880 1260 c0 -5 4 -10 9 -10 6 0 13 5 16 10 3 6 -1 10 -9 10 -9 0
-16 -4 -16 -10z"/>
<path d="M3850 1224 c0 -8 5 -12 10 -9 6 3 10 10 10 16 0 5 -4 9 -10 9 -5 0
-10 -7 -10 -16z"/>
<path d="M1280 1191 c0 -6 5 -13 10 -16 6 -3 10 1 10 9 0 9 -4 16 -10 16 -5 0
-10 -4 -10 -9z"/>
<path d="M3810 1191 c0 -6 5 -13 10 -16 6 -3 10 1 10 9 0 9 -4 16 -10 16 -5 0
-10 -4 -10 -9z"/>
<path d="M1320 1155 c0 -8 5 -15 10 -15 6 0 10 7 10 15 0 8 -4 15 -10 15 -5 0
-10 -7 -10 -15z"/>
<path d="M3770 1155 c0 -8 7 -15 15 -15 8 0 15 7 15 15 0 8 -7 15 -15 15 -8 0
-15 -7 -15 -15z"/>
<path d="M1350 1125 c0 -8 9 -15 20 -15 11 0 20 7 20 15 0 8 -9 15 -20 15 -11
0 -20 -7 -20 -15z"/>
<path d="M3730 1130 c0 -5 -7 -10 -15 -10 -8 0 -15 -7 -15 -15 0 -8 -7 -15
-15 -15 -8 0 -15 -7 -15 -15 0 -8 -9 -15 -20 -15 -11 0 -20 -4 -20 -10 0 -17
35 -11 58 10 12 11 26 20 32 20 5 0 10 7 10 15 0 8 7 15 15 15 8 0 15 7 15 15
0 8 -7 15 -15 15 -8 0 -15 -4 -15 -10z"/>
<path d="M1390 1085 c0 -8 7 -15 15 -15 8 0 15 -7 15 -15 0 -10 10 -15 30 -15
17 0 30 4 30 9 0 5 -13 12 -30 16 -16 4 -30 13 -30 21 0 8 -7 14 -15 14 -8 0
-15 -7 -15 -15z"/>
<path d="M3968 1023 c-10 -2 -18 -11 -18 -19 0 -8 -9 -14 -20 -14 -11 0 -20
-7 -20 -15 0 -8 -7 -15 -15 -15 -10 0 -15 -11 -15 -35 0 -24 5 -35 15 -35 8 0
15 -7 15 -15 0 -8 9 -15 20 -15 15 0 20 -7 20 -25 0 -16 6 -25 15 -25 8 0 15
-7 15 -16 0 -10 7 -14 22 -12 31 4 34 26 4 34 -28 7 -37 44 -11 44 8 0 15 7
15 15 0 8 7 15 15 15 20 0 38 46 29 74 -8 26 -44 66 -58 65 -6 -1 -19 -3 -28
-6z m46 -58 c8 -30 1 -45 -20 -45 -8 0 -14 -7 -14 -15 0 -8 -6 -15 -14 -15
-53 0 -65 50 -16 72 17 7 30 16 30 20 0 20 29 5 34 -17z"/>
<path d="M1080 1005 c-7 -8 -20 -15 -29 -15 -21 0 -51 -69 -51 -118 1 -64 59
-111 118 -95 32 8 28 33 -6 33 -16 0 -43 7 -60 16 -28 13 -32 21 -32 55 0 33
4 40 25 45 14 3 25 12 25 20 0 8 9 14 19 14 11 0 21 8 23 17 3 16 4 16 20 0 9
-9 21 -17 26 -17 5 0 12 -13 16 -30 4 -24 11 -30 31 -30 25 0 34 14 16 25 -5
3 -12 19 -16 35 -5 25 -11 30 -36 30 -19 0 -29 5 -29 15 0 9 -9 15 -24 15 -13
0 -29 -7 -36 -15z"/>
<path d="M1495 1010 c3 -5 12 -10 20 -10 8 0 17 5 20 10 4 6 -5 10 -20 10 -15
0 -24 -4 -20 -10z"/>
<path d="M3560 1005 c0 -8 -9 -15 -20 -15 -11 0 -20 -7 -20 -15 0 -10 -11 -15
-35 -15 -28 0 -35 -4 -35 -20 0 -16 -7 -20 -30 -20 -35 0 -40 -16 -8 -26 14
-4 25 -1 33 10 7 9 26 19 44 22 17 4 31 13 31 20 0 8 9 14 20 14 10 0 23 6 27
13 4 7 19 21 33 30 l24 17 -32 0 c-22 0 -32 -5 -32 -15z"/>
<path d="M1540 978 c0 -13 7 -18 25 -18 14 0 28 -7 31 -15 4 -8 15 -15 25 -15
10 0 19 -7 19 -15 0 -11 11 -15 36 -15 27 0 37 -5 41 -20 4 -14 14 -20 34 -20
15 0 32 -6 36 -14 4 -7 26 -19 48 -26 22 -7 42 -17 45 -21 9 -14 72 -15 77 -1
3 8 -8 12 -36 12 -28 0 -41 4 -41 13 0 8 -18 19 -40 26 -23 7 -40 18 -40 26 0
10 -11 15 -35 15 -24 0 -35 5 -35 15 0 10 -10 15 -28 15 -15 0 -35 9 -45 20
-9 11 -26 20 -37 20 -11 0 -20 6 -20 14 0 8 -13 16 -30 18 -24 4 -30 1 -30
-14z"/>
<path d="M580 975 c0 -8 5 -15 10 -15 6 0 10 7 10 15 0 8 -4 15 -10 15 -5 0
-10 -7 -10 -15z"/>
<path d="M4490 945 c0 -8 5 -15 10 -15 6 0 10 7 10 15 0 8 -4 15 -10 15 -5 0
-10 -7 -10 -15z"/>
<path d="M610 940 c0 -5 5 -10 10 -10 6 0 10 5 10 10 0 6 -4 10 -10 10 -5 0
-10 -4 -10 -10z"/>
<path d="M4450 911 c0 -6 5 -13 10 -16 6 -3 10 1 10 9 0 9 -4 16 -10 16 -5 0
-10 -4 -10 -9z"/>
<path d="M3310 876 c0 -8 -14 -16 -33 -20 -18 -3 -40 -15 -50 -26 -11 -13 -29
-20 -52 -20 -19 0 -35 -4 -35 -10 0 -12 87 -13 94 -1 3 5 18 12 33 16 16 4 36
15 46 26 10 10 31 19 47 19 20 0 30 5 30 15 0 11 -11 15 -40 15 -27 0 -40 -4
-40 -14z"/>
<path d="M4410 875 c0 -8 7 -15 15 -15 8 0 15 7 15 15 0 8 -7 15 -15 15 -8 0
-15 -7 -15 -15z"/>
<path d="M3820 875 c0 -3 14 -19 30 -35 17 -16 30 -36 30 -45 0 -8 6 -15 14
-15 7 0 16 -9 19 -20 3 -11 12 -20 21 -20 9 0 16 -7 16 -15 0 -8 7 -15 15 -15
8 0 15 7 15 15 0 8 -7 15 -15 15 -8 0 -15 7 -15 15 0 9 -20 36 -45 62 -25 25
-45 49 -45 54 0 5 -9 9 -20 9 -11 0 -20 -2 -20 -5z"/>
<path d="M1282 848 c-6 -6 -12 -18 -12 -25 0 -7 -11 -13 -25 -13 -14 0 -28 -6
-31 -14 -3 -8 -21 -17 -40 -20 -30 -6 -34 -11 -34 -36 0 -20 5 -30 15 -30 8 0
15 7 15 15 0 10 11 15 35 15 19 0 35 4 35 10 0 15 54 60 70 59 34 -3 41 2 38
24 -3 25 -45 36 -66 15z"/>
<path d="M680 840 c0 -5 7 -10 15 -10 8 0 15 5 15 10 0 6 -7 10 -15 10 -8 0
-15 -4 -15 -10z"/>
<path d="M3772 833 c5 -25 28 -28 28 -4 0 12 -6 21 -16 21 -9 0 -14 -7 -12
-17z"/>
<path d="M4380 835 c0 -8 7 -15 15 -15 8 0 15 7 15 15 0 8 -7 15 -15 15 -8 0
-15 -7 -15 -15z"/>
<path d="M718 803 c7 -3 16 -2 19 1 4 3 -2 6 -13 5 -11 0 -14 -3 -6 -6z"/>
<path d="M3798 773 c-7 -16 -23 -29 -36 -31 -12 -2 -22 -10 -22 -18 0 -8 -9
-14 -20 -14 -14 0 -20 7 -20 24 0 24 -17 37 -48 35 -11 0 -12 -2 -4 -6 6 -2
12 -16 12 -29 0 -17 6 -24 20 -24 16 0 20 -7 20 -35 0 -23 5 -35 14 -35 7 0
16 -9 19 -21 6 -23 30 -21 35 3 2 9 -6 18 -18 21 -23 6 -28 37 -5 37 8 0 15 7
15 15 0 11 12 15 45 15 32 0 45 -4 45 -14 0 -15 27 -25 48 -19 18 7 14 33 -6
33 -10 0 -23 14 -31 33 -14 31 -34 57 -45 57 -3 0 -11 -12 -18 -27z"/>
<path d="M1408 773 c-14 -3 -18 -15 -18 -49 0 -30 -5 -46 -15 -50 -25 -10 -17
-24 15 -24 20 0 30 5 30 15 0 8 7 15 15 15 16 0 31 60 21 85 -5 15 -16 17 -48
8z"/>
<path d="M2050 760 c36 -11 50 -11 50 0 0 6 -17 10 -37 9 -34 -1 -35 -2 -13
-9z"/>
<path d="M3008 763 c12 -2 30 -2 40 0 9 3 -1 5 -23 4 -22 0 -30 -2 -17 -4z"/>
<path d="M1250 730 c0 -11 5 -20 10 -20 6 0 10 -6 10 -14 0 -8 6 -16 13 -18
24 -9 37 4 37 38 0 32 -2 34 -35 34 -28 0 -35 -4 -35 -20z"/>
<path d="M801 724 c0 -11 3 -14 6 -6 3 7 2 16 -1 19 -3 4 -6 -2 -5 -13z"/>
<path d="M2100 725 c0 -12 15 -15 75 -15 60 0 75 3 75 15 0 12 -15 15 -75 15
-60 0 -75 -3 -75 -15z"/>
<path d="M2840 725 c0 -12 15 -15 75 -15 60 0 75 3 75 15 0 12 -15 15 -75 15
-60 0 -75 -3 -75 -15z"/>
<path d="M3560 725 c0 -10 -10 -15 -34 -15 -30 0 -35 -4 -41 -30 -4 -17 -13
-30 -21 -30 -10 0 -14 -8 -12 -22 2 -19 8 -22 36 -20 24 2 32 -1 32 -12 0 -20
27 -21 47 0 10 9 29 14 52 12 34 -3 36 -5 39 -40 3 -30 7 -38 23 -38 16 0 19
7 19 40 0 28 -4 40 -14 40 -8 0 -17 7 -20 16 -5 14 -16 16 -59 11 -28 -4 -53
-11 -55 -17 -2 -5 -10 -10 -18 -10 -9 0 -14 11 -14 35 l0 35 50 0 c38 0 50 4
50 15 0 8 -9 15 -20 15 -11 0 -20 7 -20 15 0 8 -4 15 -10 15 -5 0 -10 -7 -10
-15z"/>
<path d="M4270 725 c0 -8 7 -15 15 -15 8 0 15 7 15 15 0 8 -7 15 -15 15 -8 0
-15 -7 -15 -15z"/>
<path d="M830 695 c0 -8 7 -15 15 -15 8 0 15 7 15 15 0 8 -7 15 -15 15 -8 0
-15 -7 -15 -15z"/>
<path d="M1570 695 c0 -8 -6 -15 -13 -15 -7 0 -21 -15 -30 -34 -15 -32 -15
-35 2 -50 24 -22 28 -20 36 14 4 17 13 30 21 30 9 0 14 11 14 35 0 24 -5 35
-15 35 -8 0 -15 -7 -15 -15z"/>
<path d="M2310 695 c0 -9 9 -15 25 -15 16 0 25 6 25 15 0 9 -9 15 -25 15 -16
0 -25 -6 -25 -15z"/>
<path d="M2370 695 c0 -13 31 -15 220 -15 189 0 220 2 220 15 0 13 -31 15
-220 15 -189 0 -220 -2 -220 -15z"/>
<path d="M4230 695 c0 -8 7 -15 15 -15 8 0 15 7 15 15 0 8 -7 15 -15 15 -8 0
-15 -7 -15 -15z"/>
<path d="M4200 660 c0 -5 7 -10 16 -10 8 0 12 5 9 10 -3 6 -10 10 -16 10 -5 0
-9 -4 -9 -10z"/>
<path d="M1640 635 c0 -8 -9 -19 -20 -25 -14 -8 -20 -21 -20 -45 0 -23 -5 -35
-14 -35 -13 0 -29 -48 -19 -62 10 -18 33 -7 33 17 0 14 8 29 20 35 14 7 20 21
20 44 0 21 6 36 15 40 8 3 15 15 15 26 0 11 -7 20 -15 20 -8 0 -15 -7 -15 -15z"/>
<path d="M1320 625 c0 -8 7 -15 15 -15 8 0 15 7 15 15 0 8 -7 15 -15 15 -8 0
-15 -7 -15 -15z"/>
<path d="M1700 625 c0 -8 7 -15 15 -15 16 0 35 -30 35 -55 0 -9 7 -23 15 -31
10 -10 15 -35 15 -74 0 -48 4 -63 22 -80 12 -11 28 -20 35 -20 7 0 13 -4 13
-10 0 -5 7 -10 15 -10 8 0 15 4 15 9 0 5 9 11 20 14 11 3 20 10 20 16 0 6 -9
11 -20 11 -11 0 -20 -4 -20 -10 0 -5 -7 -10 -15 -10 -8 0 -15 4 -15 9 0 5 -8
11 -18 14 -37 9 -35 117 3 117 11 0 15 11 15 40 0 39 -1 40 -35 40 -23 0 -35
5 -35 13 0 20 -33 47 -58 47 -13 0 -22 -6 -22 -15z"/>
<path d="M930 620 c0 -5 7 -10 16 -10 8 0 12 5 9 10 -3 6 -10 10 -16 10 -5 0
-9 -4 -9 -10z"/>
<path d="M4170 620 c0 -5 5 -10 10 -10 6 0 10 5 10 10 0 6 -4 10 -10 10 -5 0
-10 -4 -10 -10z"/>
<path d="M1420 585 c0 -17 -6 -25 -17 -26 -15 0 -15 -2 2 -9 31 -13 45 -12 45
5 0 9 7 18 16 22 15 6 15 8 -2 20 -27 20 -44 16 -44 -12z"/>
<path d="M3310 591 c0 -27 29 -61 52 -61 10 0 18 -6 18 -14 0 -8 9 -18 20 -21
11 -3 20 -13 20 -21 0 -8 7 -14 15 -14 8 0 15 -7 15 -15 0 -8 7 -15 15 -15 10
0 15 10 15 34 0 28 -4 35 -26 40 -27 7 -70 46 -90 81 -16 29 -54 32 -54 6z"/>
<path d="M960 590 c0 -5 7 -10 15 -10 8 0 15 5 15 10 0 6 -7 10 -15 10 -8 0
-15 -4 -15 -10z"/>
<path d="M1497 538 c-7 -23 -1 -38 14 -38 5 0 9 14 9 30 0 35 -15 40 -23 8z"/>
<path d="M3202 536 c-12 -27 -7 -36 20 -36 11 0 18 -7 18 -20 0 -11 7 -20 15
-20 8 0 15 -7 15 -15 0 -8 6 -15 14 -15 8 0 17 -11 20 -25 7 -26 31 -34 38
-13 2 6 2 24 0 40 -4 24 -9 28 -38 28 -27 0 -34 4 -34 20 0 11 -7 20 -15 20
-8 0 -15 6 -15 13 0 6 -7 20 -14 29 -12 16 -14 16 -24 -6z"/>
<path d="M3460 550 c0 -5 5 -10 10 -10 6 0 10 5 10 10 0 6 -4 10 -10 10 -5 0
-10 -4 -10 -10z"/>
<path d="M1712 521 c-11 -7 -11 -9 2 -14 10 -4 16 -1 16 8 0 17 -1 17 -18 6z"/>
<path d="M1957 523 c-4 -3 -7 -19 -7 -35 0 -18 -5 -28 -15 -28 -10 0 -15 -11
-15 -35 0 -23 5 -35 14 -35 8 0 17 15 20 35 4 20 13 35 21 35 20 0 27 15 19
45 -6 24 -23 33 -37 18z"/>
<path d="M3127 524 c-10 -10 2 -24 22 -24 12 0 21 -12 28 -37 l10 -38 2 38 c0
20 -3 37 -9 37 -5 0 -10 7 -10 15 0 15 -31 21 -43 9z"/>
<path d="M3550 515 c0 -18 13 -21 61 -17 58 6 50 28 -11 30 -36 1 -50 -3 -50
-13z"/>
<path d="M3026 505 c-3 -8 -12 -15 -21 -15 -12 0 -15 -13 -15 -60 0 -47 3 -60
15 -60 8 0 15 -9 15 -20 0 -11 7 -20 15 -20 9 0 27 -7 41 -16 19 -13 30 -14
47 -6 12 6 32 13 43 17 24 6 39 44 23 60 -6 6 -12 2 -15 -13 -4 -12 -12 -22
-19 -22 -8 0 -21 -8 -31 -17 -14 -15 -18 -15 -28 -2 -6 8 -19 18 -28 22 -10 3
-18 13 -18 21 0 7 -7 16 -15 20 -9 3 -15 18 -15 36 0 20 5 30 15 30 9 0 15 9
15 24 0 18 7 26 23 29 16 3 14 5 -9 6 -20 0 -34 -5 -38 -14z"/>
<path d="M2100 486 c0 -17 49 -31 63 -17 15 15 -2 31 -34 31 -18 0 -29 -5 -29
-14z"/>
<path d="M2030 468 c0 -47 12 -67 41 -73 26 -6 29 -11 29 -46 0 -25 -5 -39
-12 -39 -32 0 -58 14 -58 30 0 22 -26 34 -34 14 -7 -19 3 -44 19 -44 7 0 15
-7 19 -15 9 -25 96 -15 96 11 0 8 7 14 15 14 10 0 15 10 15 29 0 25 -5 31 -30
36 -21 5 -30 13 -30 26 0 12 -7 19 -20 19 -16 0 -20 7 -20 30 0 20 -5 30 -15
30 -9 0 -15 -9 -15 -22z"/>
<path d="M2320 475 c0 -8 5 -15 10 -15 6 0 10 7 10 15 0 8 -4 15 -10 15 -5 0
-10 -7 -10 -15z"/>
<path d="M2401 444 c0 -11 3 -14 6 -6 3 7 2 16 -1 19 -3 4 -6 -2 -5 -13z"/>
<path d="M2480 445 c0 -8 -4 -15 -10 -15 -5 0 -10 -11 -10 -25 0 -14 4 -25 10
-25 6 0 6 -9 0 -26 -6 -14 -10 -43 -10 -65 0 -38 1 -39 35 -39 38 0 45 15 18
35 -17 12 -17 14 -1 32 13 14 17 35 15 81 -1 57 -3 62 -24 62 -14 0 -23 -6
-23 -15z"/>
<path d="M2590 445 c0 -8 9 -15 20 -15 11 0 20 7 20 15 0 8 -9 15 -20 15 -11
0 -20 -7 -20 -15z"/>
<path d="M2810 445 c0 -8 7 -15 15 -15 12 0 15 -14 15 -63 0 -58 2 -65 31 -90
21 -18 38 -25 50 -22 20 7 26 25 9 25 -5 0 -10 7 -10 15 0 8 -6 15 -14 15 -18
0 -36 52 -36 106 0 42 -1 44 -30 44 -20 0 -30 -5 -30 -15z"/>
<path d="M2678 358 c4 -73 21 -108 49 -108 7 0 13 7 13 15 0 8 -6 15 -12 15
-20 0 -38 49 -38 102 0 26 -4 48 -9 48 -4 0 -6 -33 -3 -72z"/>
<path d="M2280 340 c0 -45 3 -61 13 -58 6 3 13 18 15 35 3 29 8 32 55 44 l52
13 -47 7 c-25 4 -56 10 -67 14 -20 6 -21 3 -21 -55z"/>
<path d="M2960 293 c0 -10 4 -14 8 -8 4 6 11 13 16 18 5 4 2 7 -7 7 -10 0 -17
-8 -17 -17z"/>
<path d="M1570 230 c0 -5 14 -10 30 -10 17 0 30 5 30 10 0 6 -13 10 -30 10
-16 0 -30 -4 -30 -10z"/>
<path d="M3490 230 c0 -5 5 -10 10 -10 6 0 10 5 10 10 0 6 -4 10 -10 10 -5 0
-10 -4 -10 -10z"/>
<path d="M1670 190 c0 -5 7 -10 15 -10 8 0 15 5 15 10 0 6 -7 10 -15 10 -8 0
-15 -4 -15 -10z"/>
<path d="M1918 123 c6 -2 18 -2 25 0 6 3 1 5 -13 5 -14 0 -19 -2 -12 -5z"/>
<path d="M2030 90 c0 -5 16 -10 35 -10 19 0 35 5 35 10 0 6 -16 10 -35 10 -19
0 -35 -4 -35 -10z"/>
<path d="M3020 90 c0 -5 7 -10 15 -10 8 0 15 5 15 10 0 6 -7 10 -15 10 -8 0
-15 -4 -15 -10z"/>
<path d="M2235 50 c3 -5 22 -10 41 -10 19 0 34 5 34 10 0 6 -18 10 -41 10 -24
0 -38 -4 -34 -10z"/>
<path d="M2790 50 c36 -12 78 -12 85 0 4 6 -16 10 -52 9 -44 -1 -52 -3 -33 -9z"/>
<path d="M2430 15 c0 -10 11 -15 35 -15 24 0 35 5 35 15 0 10 -11 15 -35 15
-24 0 -35 -5 -35 -15z"/>
<path d="M2520 15 c0 -12 14 -15 70 -15 56 0 70 3 70 15 0 12 -14 15 -70 15
-56 0 -70 -3 -70 -15z"/>
</g>
</svg>
